<svg width="746" height="100" viewBox="0 0 746 100" fill="none" xmlns="http://www.w3.org/2000/svg">
<path d="M735.388 90.0596H665.806V75.7455H735.388V90.0596Z" fill="#EF3124"/>
<path d="M9.94043 64.4006L9.94043 75.7455L55.7002 60.4133C60.124 58.9311 63.6184 57.2223 63.6184 51.3672C63.6184 45.512 60.1384 43.6937 55.7002 42.1328L9.94043 26.0437L9.94043 36.7133L20.8192 40.4274L30.3619 43.6529L51.6965 50.8271L51.6965 51.097L30.0078 57.9855L20.8192 60.9567L9.94043 64.4006Z" fill="#EF3124"/>
<path d="M645.806 68.2703V75.7853H635.339C625.02 75.7853 619.861 70.8648 619.861 61.0238V38.9264H606.8V31.5904L619.861 31.5904V12.2664L628.003 12.2664V31.5904L645.806 31.5904V38.9264L628.003 38.9264V59.1451C628.003 62.4851 628.688 64.8409 630.06 66.2127C631.432 67.5845 633.788 68.2703 637.128 68.2703H645.806Z" fill="#D9D9D6"/>
<path d="M568.089 51.8987V75.7854H559.948V31.5905H568.089V39.7317C569.521 36.9285 571.578 34.7218 574.262 33.1114C577.006 31.4414 579.958 30.6064 583.119 30.6064C588.547 30.6064 593.109 32.4554 596.807 36.1532C600.266 40.0299 601.996 44.7715 601.996 50.3778V75.7854H593.765V51.8987C593.765 47.843 592.662 44.5329 590.455 41.9683C588.248 39.4037 585.147 38.1214 581.151 38.1214C577.155 38.1214 573.964 39.4335 571.578 42.0577C569.252 44.682 568.089 47.9623 568.089 51.8987Z" fill="#D9D9D6"/>
<path d="M528.788 30.5168C535.707 30.5168 541.194 32.8429 545.25 37.495C549.305 42.0874 551.333 47.8131 551.333 54.6719L514.564 54.6719C514.683 57.5944 515.578 60.3379 517.248 62.9025C518.918 65.4075 521.065 67.1669 523.689 68.1809C525.419 68.9562 527.387 69.3439 529.593 69.3439C532.218 69.3439 534.812 68.8369 537.377 67.823C539.941 66.7495 541.731 65.1988 542.745 63.1709H550.796C550.319 65.8548 548.947 68.2703 546.681 70.4174C544.415 72.5049 541.88 74.1153 539.077 75.2485C536.512 76.322 533.351 76.8588 529.593 76.8588C522.914 76.8588 517.367 74.652 512.953 70.2385C508.54 65.825 506.333 60.3081 506.333 53.6878C506.333 47.0675 508.45 41.5506 512.685 37.1371C516.92 32.7236 522.287 30.5168 528.788 30.5168ZM528.788 37.495C525.329 37.495 522.377 38.3896 519.931 40.1789C517.546 41.9681 515.935 44.5328 515.1 47.8727L542.297 47.8727C541.283 44.5924 539.613 42.0576 537.287 40.2683C534.961 38.4194 532.128 37.495 528.788 37.495Z" fill="#D9D9D6"/>
<path d="M488.865 23.0913V10.2981L497.364 10.2981V23.0913H488.865ZM489.044 75.7852V31.5903H497.185V75.7852H489.044Z" fill="#D9D9D6"/>
<path d="M468.271 75.7854V9.94043L476.412 9.94043V75.7854H468.271Z" fill="#D9D9D6"/>
<path d="M459.615 45.3677H451.384C448.939 40.4771 444.645 38.0318 438.502 38.0318C434.327 38.0318 430.957 39.5825 428.392 42.6838C425.828 45.7852 424.545 49.4532 424.545 53.6878C424.545 57.9224 425.857 61.5904 428.482 64.6918C431.106 67.7932 434.476 69.3439 438.591 69.3439C444.734 69.3439 449.058 66.8986 451.563 62.0079H459.615C459.317 64.6322 457.736 67.495 454.873 70.5964C450.877 74.7713 445.45 76.8588 438.591 76.8588C432.209 76.8588 426.871 74.5924 422.577 70.0596C418.283 65.5268 416.136 60.0695 416.136 53.6878C416.136 47.2465 418.283 41.7892 422.577 37.3161C426.871 32.7832 432.179 30.5168 438.502 30.5168C443.571 30.5168 448.104 31.829 452.1 34.4532C456.096 37.0178 458.601 40.656 459.615 45.3677Z" fill="#D9D9D6"/>
<path d="M373.654 30.5168C380.573 30.5168 386.06 32.8429 390.116 37.495C394.171 42.0874 396.199 47.8131 396.199 54.6719L359.43 54.6719C359.549 57.5944 360.444 60.3379 362.114 62.9025C363.784 65.4075 365.931 67.1669 368.555 68.1809C370.285 68.9562 372.253 69.3439 374.46 69.3439C377.084 69.3439 379.678 68.8369 382.243 67.823C384.808 66.7495 386.597 65.1988 387.611 63.1709H395.662C395.185 65.8548 393.814 68.2703 391.547 70.4174C389.281 72.5049 386.746 74.1153 383.943 75.2485C381.378 76.322 378.217 76.8588 374.46 76.8588C367.78 76.8588 362.233 74.652 357.819 70.2385C353.406 65.825 351.199 60.3081 351.199 53.6878C351.199 47.0675 353.317 41.5506 357.551 37.1371C361.786 32.7236 367.153 30.5168 373.654 30.5168ZM373.654 37.495C370.195 37.495 367.243 38.3896 364.798 40.1789C362.412 41.9681 360.802 44.5328 359.967 47.8727L387.163 47.8727C386.15 44.5924 384.48 42.0576 382.153 40.2683C379.827 38.4194 376.994 37.495 373.654 37.495Z" fill="#D9D9D6"/>
<path d="M346.57 68.2703V75.7853H336.103C325.785 75.7853 320.626 70.8648 320.626 61.0238V38.9264H307.564V31.5904L320.626 31.5904V12.2664L328.767 12.2664V31.5904L346.57 31.5904V38.9264L328.767 38.9264V59.1451C328.767 62.4851 329.453 64.8409 330.825 66.2127C332.197 67.5845 334.553 68.2703 337.892 68.2703H346.57Z" fill="#D9D9D6"/>
<path d="M281.45 30.5168C288.07 30.5168 293.587 32.7534 298.001 37.2266C302.474 41.6401 304.71 47.1272 304.71 53.6878C304.71 60.2485 302.444 65.7654 297.911 70.2385C293.438 74.652 287.951 76.8588 281.45 76.8588C274.83 76.8588 269.283 74.6222 264.81 70.1491C260.396 65.6759 258.189 60.1888 258.189 53.6878C258.189 47.0675 260.426 41.5506 264.899 37.1371C269.372 32.7236 274.889 30.5168 281.45 30.5168ZM281.45 69.3439C285.863 69.3439 289.442 67.823 292.185 64.7813C294.929 61.7395 296.301 58.0417 296.301 53.6878C296.301 49.2147 294.899 45.487 292.096 42.5049C289.352 39.5228 285.804 38.0318 281.45 38.0318C277.036 38.0318 273.458 39.5526 270.714 42.5944C267.971 45.5765 266.599 49.2743 266.599 53.6878C266.599 58.1013 268.001 61.829 270.804 64.8707C273.607 67.8528 277.156 69.3439 281.45 69.3439Z" fill="#D9D9D6"/>
<path d="M182.991 51.8987V75.7854H174.85V31.5905H182.991V39.7317C184.422 36.9285 186.45 34.7218 189.074 33.1114C191.758 31.4414 194.681 30.6064 197.842 30.6064C201.659 30.6064 205.029 31.5309 207.951 33.3798C210.873 35.2287 213.08 37.8828 214.571 41.342C215.943 38.1214 218.12 35.5269 221.102 33.5587C224.084 31.5905 227.335 30.6064 230.854 30.6064C236.281 30.6064 240.844 32.4554 244.541 36.1532C248.001 40.0299 249.73 44.7715 249.73 50.3778V75.7854H241.5V51.8987C241.5 47.9027 240.426 44.6223 238.279 42.0577C236.192 39.4335 233.18 38.1214 229.243 38.1214C225.307 38.1214 222.176 39.4335 219.85 42.0577C217.524 44.682 216.361 47.9623 216.361 51.8987V75.7854H208.13V51.8987C208.13 47.9027 207.056 44.6223 204.909 42.0577C202.822 39.4335 199.81 38.1214 195.873 38.1214C191.937 38.1214 188.806 39.4335 186.48 42.0577C184.154 44.682 182.991 47.9623 182.991 51.8987Z" fill="#D9D9D6"/>
<path d="M143.689 30.5168C150.607 30.5168 156.094 32.8429 160.15 37.495C164.206 42.0874 166.233 47.8131 166.233 54.6719L129.464 54.6719C129.583 57.5944 130.478 60.3379 132.148 62.9025C133.818 65.4075 135.965 67.1669 138.589 68.1809C140.319 68.9562 142.287 69.3439 144.494 69.3439C147.118 69.3439 149.713 68.8369 152.277 67.823C154.842 66.7495 156.631 65.1988 157.645 63.1709H165.697C165.219 65.8548 163.848 68.2703 161.581 70.4174C159.315 72.5049 156.78 74.1153 153.977 75.2485C151.412 76.322 148.251 76.8588 144.494 76.8588C137.814 76.8588 132.267 74.652 127.854 70.2385C123.44 65.825 121.233 60.3081 121.233 53.6878C121.233 47.0675 123.351 41.5506 127.585 37.1371C131.82 32.7236 137.188 30.5168 143.689 30.5168ZM143.689 37.495C140.229 37.495 137.277 38.3896 134.832 40.1789C132.446 41.9681 130.836 44.5328 130.001 47.8727L157.198 47.8727C156.184 44.5924 154.514 42.0576 152.188 40.2683C149.862 38.4194 147.029 37.495 143.689 37.495Z" fill="#D9D9D6"/>
<path d="M91.6402 50.8251V75.7853H83.499L83.499 31.5905H91.6402V39.7317C91.8787 39.016 92.3857 38.1213 93.1611 37.0478C94.4135 35.0199 96.3221 33.5587 98.8867 32.6641C101.511 31.7098 104.225 31.2327 107.028 31.2327L118.121 31.2327V39.3738L106.849 39.3738C101.958 39.3738 98.2008 40.179 95.5766 41.7893C92.9523 43.34 91.6402 46.352 91.6402 50.8251Z" fill="#D9D9D6"/>
</svg>
